<svg id="visual" viewBox="0 0 900 600" width="900" height="600" xmlns="http://www.w3.org/2000/svg" xmlns:xlink="http://www.w3.org/1999/xlink" version="1.1"><rect x="0" y="0" width="900" height="600" fill="#140021"></rect><path d="M0 342L82 342L82 284L164 284L164 354L245 354L245 238L327 238L327 368L409 368L409 319L491 319L491 366L573 366L573 291L655 291L655 308L736 308L736 354L818 354L818 239L900 239L900 263L900 601L900 601L818 601L818 601L736 601L736 601L655 601L655 601L573 601L573 601L491 601L491 601L409 601L409 601L327 601L327 601L245 601L245 601L164 601L164 601L82 601L82 601L0 601Z" fill="#9900ff"></path><path d="M0 307L82 307L82 443L164 443L164 385L245 385L245 393L327 393L327 302L409 302L409 379L491 379L491 396L573 396L573 358L655 358L655 305L736 305L736 350L818 350L818 314L900 314L900 303L900 601L900 601L818 601L818 601L736 601L736 601L655 601L655 601L573 601L573 601L491 601L491 601L409 601L409 601L327 601L327 601L245 601L245 601L164 601L164 601L82 601L82 601L0 601Z" fill="#8200d9"></path><path d="M0 382L82 382L82 412L164 412L164 473L245 473L245 422L327 422L327 449L409 449L409 437L491 437L491 378L573 378L573 414L655 414L655 431L736 431L736 407L818 407L818 503L900 503L900 470L900 601L900 601L818 601L818 601L736 601L736 601L655 601L655 601L573 601L573 601L491 601L491 601L409 601L409 601L327 601L327 601L245 601L245 601L164 601L164 601L82 601L82 601L0 601Z" fill="#6c00b4"></path><path d="M0 535L82 535L82 486L164 486L164 540L245 540L245 540L327 540L327 513L409 513L409 479L491 479L491 503L573 503L573 480L655 480L655 563L736 563L736 481L818 481L818 550L900 550L900 544L900 601L900 601L818 601L818 601L736 601L736 601L655 601L655 601L573 601L573 601L491 601L491 601L409 601L409 601L327 601L327 601L245 601L245 601L164 601L164 601L82 601L82 601L0 601Z" fill="#560090"></path></svg>