<svg width="900" height="900" xmlns="http://www.w3.org/2000/svg" xmlns:xlink="http://www.w3.org/1999/xlink" version="1.1" style=""><rect id="backgroundrect" width="100%" height="100%" x="0" y="0" fill="none" stroke="none"/><g class="currentLayer" style=""><title>Layer 1</title><rect x="-1.0989010334014893" y="0" width="900" height="900" fill="#1c002f" id="svg_1" class="selected"/><path d="M 0 647 L 25 654.3 C 50 661.7 100 676.3 150 665.7 C 200 655 250 619 300 616.7 C 350 614.3 400 645.7 450 660.5 C 500 675.3 550 673.7 600 654.2 C 650 634.7 700 597.3 750 585.7 C 800 574 850 588 875 595 L 900 602 L 900 901 L 875 901 C 850 901 800 901 750 901 C 700 901 650 901 600 901 C 550 901 500 901 450 901 C 400 901 350 901 300 901 C 250 901 200 901 150 901 C 100 901 50 901 25 901 L 0 901 z" fill="#d90429" stroke-linecap="round" stroke-linejoin="miter" id="svg_2" class="" fill-opacity="1" opacity="1"/></g></svg>