<svg id="visual" viewBox="0 0 900 900" width="900" height="900" xmlns="http://www.w3.org/2000/svg" xmlns:xlink="http://www.w3.org/1999/xlink" version="1.1"><rect x="0" y="0" width="900" height="900" fill="#1c002f"></rect><path d="M0 647L25 654.3C50 661.7 100 676.3 150 665.7C200 655 250 619 300 616.7C350 614.3 400 645.7 450 660.5C500 675.3 550 673.7 600 654.2C650 634.7 700 597.3 750 585.7C800 574 850 588 875 595L900 602L900 901L875 901C850 901 800 901 750 901C700 901 650 901 600 901C550 901 500 901 450 901C400 901 350 901 300 901C250 901 200 901 150 901C100 901 50 901 25 901L0 901Z" fill="#fef08a" stroke-linecap="round" stroke-linejoin="miter"></path></svg>